<?xml version="1.0" encoding="UTF-8"?>
<svg version="1.1" xmlns="http://www.w3.org/2000/svg" width="200" height="200">
<path d="M0 0 C66 0 132 0 200 0 C200 66 200 132 200 200 C134 200 68 200 0 200 C0 134 0 68 0 0 Z " fill="#FEFEFE" transform="translate(0,0)"/>
<path d="M0 0 C3.08074603 1.4288528 5.6562904 3.16006639 8.375 5.1875 C19.56854402 13.12594813 31.98006389 19.61768494 46 18 C51.68165334 16.42594372 57.18703086 14.38873713 62.4765625 11.77734375 C67.95110129 9.15295144 72.8204306 8.61570998 78.8125 8.5625 C79.5230957 8.5524292 80.23369141 8.5423584 80.96582031 8.53198242 C88.15178252 8.64552127 93.62619868 10.29835354 101 12 C101 29.49 101 46.98 101 65 C35 65 -31 65 -99 65 C-99 47.51 -99 30.02 -99 12 C-84.11118322 7.03706107 -70.15488202 7.44268589 -56 14 C-45.49640245 18.60451825 -36.30656078 19.86696802 -25.3125 15.875 C-15.90073367 11.84300383 -7.90762411 6.45598297 0 0 Z " fill="#FEFEFE" transform="translate(99,135)"/>
<path d="M0 0 C5.59124726 4.79249765 9.76927325 11.65491803 11 19 C11.09484264 21.6779099 11.13954771 24.32322049 11.125 27 C11.12886719 27.7115625 11.13273437 28.423125 11.13671875 29.15625 C11.13033978 32.57538017 11.07200732 35.73293006 10 39 C10.99580078 38.16855469 10.99580078 38.16855469 12.01171875 37.3203125 C12.89472656 36.59585938 13.77773437 35.87140625 14.6875 35.125 C15.55761719 34.40570313 16.42773438 33.68640625 17.32421875 32.9453125 C21.14318008 30.16889974 23.76211878 28.97789498 28.5 29.0625 C32.62568796 30.16759499 34.27580892 31.78050145 37 35 C36.34773437 35.17015625 35.69546875 35.3403125 35.0234375 35.515625 C24.61831864 38.4008202 19.5556878 42.78260888 14 52 C9.96544923 59.17411317 9.74781365 67.7077407 11.62109375 75.625 C14.28199913 82.62613772 19.25428542 86.16876176 25.8125 89.375 C31.78962596 90.54698548 37.58525077 90.84963399 43.375 88.8125 C44.24125 88.214375 45.1075 87.61625 46 87 C46.94875 86.38125 47.8975 85.7625 48.875 85.125 C52.31257251 80.06974631 51.77094424 74.91771087 51 69 C49.74633512 64.69886252 48.02431608 61.9135792 44.6875 58.9375 C40.9880277 57.64698641 38.74974801 57.90916422 35 59 C32.06197531 61.5707716 31.08894007 62.97718923 30.75 66.875 C32.61160006 71.52900015 36.0947061 73.99319057 40 77 C39.67 77.66 39.34 78.32 39 79 C33.71776236 80.76074588 29.62314139 80.79625804 24.6875 78.375 C20.67413126 74.82830204 19.20498545 71.87903328 18.625 66.5625 C19.39326836 59.26395058 22.78490218 53.95882766 28 49 C33.00062932 45.47682934 38.07144243 45.06108817 44 46 C51.16405798 48.58734036 56.49156569 53.23967581 60.03125 59.95703125 C63.83749172 69.45501406 62.66004504 80.35733674 60 90 C60.67804688 89.6390625 61.35609375 89.278125 62.0546875 88.90625 C69.37655057 85.25545955 75.30326114 83.38592399 83.34375 85.6640625 C89.05837701 87.91468615 93.86954763 91.45860977 98 96 C98.33 96.99 98.66 97.98 99 99 C92.59094955 99.12566766 92.59094955 99.12566766 89.77734375 98.52734375 C77.37014997 96.17154746 67.03316866 97.92251445 55.76953125 103.2734375 C47.32694764 107.28215403 38.77390288 108.58646152 29.6875 106.08984375 C18.87076882 102.12285861 9.87924634 96.24923976 1 89 C-2.08074603 90.4288528 -4.6562904 92.16006639 -7.375 94.1875 C-18.99198878 102.42625465 -31.48231578 108.60228622 -46 107 C-51.42816041 105.41018873 -56.53036894 103.13342305 -61.6640625 100.77734375 C-73.04557356 95.9806042 -85.99024398 97.54741612 -98 99 C-94.08558225 91.8519328 -87.66181532 87.61417284 -80 85 C-72.08697502 83.90609888 -65.91570593 86.48871443 -59 90 C-59.33 88.824375 -59.66 87.64875 -60 86.4375 C-62.18909301 76.39622554 -62.58069348 65.91740182 -57 57 C-56.195625 55.6696875 -56.195625 55.6696875 -55.375 54.3125 C-50.39881487 49.46726711 -44.91829077 45.66791046 -37.8125 45.375 C-31.13912166 45.84495622 -27.1014086 48.56624665 -22.6875 53.4375 C-19.26667971 57.76383155 -17.76149222 60.85439333 -18.125 66.4375 C-18.75639499 70.79920563 -20.04184517 73.64209452 -23 77 C-27.76348149 80.24782829 -31.42664432 80.37155705 -37 80 C-37.99 79.505 -37.99 79.505 -39 79 C-37.86280581 75.58841744 -36.95657056 74.88145399 -34 73 C-33.34 73 -32.68 73 -32 73 C-30.96412696 70.13901732 -30.1984847 67.98799946 -30 65 C-31.95784831 61.41061144 -33.10357439 59.58803895 -37.015625 58.375 C-40.34827228 57.88127448 -42.79750881 57.93250294 -46 59 C-47.10168984 60.69769234 -47.10168984 60.69769234 -48 63 C-48.53625 64.051875 -49.0725 65.10375 -49.625 66.1875 C-51.41194365 70.42693263 -51.6236646 74.46348081 -51 79 C-48.73186154 84.37190689 -44.31502547 87.7830375 -39 90 C-30.76042789 91.14774098 -23.73573593 90.00095492 -17 85 C-11.0982624 78.82180625 -9.62484427 73.64419126 -9.7265625 65.19140625 C-10.56614306 55.39230166 -16.45851264 45.85039145 -23.875 39.5625 C-27.80188763 37.59905618 -31.7933093 36.2339626 -36 35 C-33.2323642 31.92484911 -31.04409984 30.03453717 -27 29 C-20.78286178 28.88043965 -17.3766855 31.58692428 -12.72265625 35.30859375 C-12.15417969 35.86675781 -11.58570312 36.42492187 -11 37 C-11 37.66 -11 38.32 -11 39 C-10.34 39 -9.68 39 -9 39 C-9.33 38.01 -9.66 37.02 -10 36 C-10.94973532 21.41144277 -8.67867143 11.97656657 0 0 Z " fill="#050505" transform="translate(100,47)"/>
<path d="M0 0 C0.66 0.33 1.32 0.66 2 1 C-0.97 3.97 -3.94 6.94 -7 10 C-7 6.04435836 -5.59478606 4.89133304 -3 2 C-2.01 1.34 -1.02 0.68 0 0 Z " fill="#E3E3E3" transform="translate(124,86)"/>
</svg>
